HIERARCHY
ROOT hip
{
	OFFSET 0.000000 0.000000 0.000000 
	CHANNELS 6 Xposition Yposition Zposition Xrotation Zrotation Yrotation
	JOINT abdomen
	{
		OFFSET 0.000000 3.402643 0.000000 
		CHANNELS 3 Xrotation Zrotation Yrotation
		JOINT chest
		{
			OFFSET 0.000000 8.438565 -0.680529 
			CHANNELS 3 Xrotation Zrotation Yrotation
			JOINT neck
			{
				OFFSET 0.000000 10.207942 -0.272212 
				CHANNELS 3 Xrotation Zrotation Yrotation
				JOINT head
				{
					OFFSET 0.000000 3.130431 0.000000 
					CHANNELS 3 Xrotation Zrotation Yrotation
					End Site
					{
						OFFSET 0.000000 3.130435 0.000000 
					}
				}
			}
			JOINT lCollar
			{
				OFFSET 3.470700 6.669187 -0.816635 
				CHANNELS 3 Yrotation Zrotation Xrotation
				JOINT lShldr
				{
					OFFSET 3.198488 0.000000 0.000000 
					CHANNELS 3 Zrotation Yrotation Xrotation
					JOINT lForeArm
					{
						OFFSET 10.139888 0.000000 0.000000 
						CHANNELS 3 Yrotation Zrotation Xrotation
						JOINT lHand
						{
							OFFSET 8.370511 0.000000 0.000000 
							CHANNELS 3 Zrotation Yrotation Xrotation
							End Site
							{
								OFFSET 4.083176 0.000000 0.000000 
							}
						}
					}
				}
			}
			JOINT rCollar
			{
				OFFSET -3.470700 6.669187 -0.816635 
				CHANNELS 3 Yrotation Zrotation Xrotation
				JOINT rShldr
				{
					OFFSET -3.198488 0.000000 0.000000 
					CHANNELS 3 Zrotation Yrotation Xrotation
					JOINT rForeArm
					{
						OFFSET -10.139888 0.000000 0.000000 
						CHANNELS 3 Yrotation Zrotation Xrotation
						JOINT rHand
						{
							OFFSET -8.370511 0.000000 0.000000 
							CHANNELS 3 Zrotation Yrotation Xrotation
							End Site
							{
								OFFSET -4.083176 0.000000 0.000000 
							}
						}
					}
				}
			}
		}
	}
	JOINT lThigh
	{
		OFFSET 5.308129 -1.633274 1.361059 
		CHANNELS 3 Xrotation Zrotation Yrotation
		JOINT lShin
		{
			OFFSET -2.041588 -20.007561 0.000000 
			CHANNELS 3 Xrotation Zrotation Yrotation
			JOINT lFoot
			{
				OFFSET 0.000000 -19.190928 -1.224953 
				CHANNELS 3 Xrotation Yrotation Zrotation
				End Site
				{
					OFFSET 0.000000 -2.449906 4.627600 
				}
			}
		}
	}
	JOINT rThigh
	{
		OFFSET -5.308129 -1.633274 1.361059 
		CHANNELS 3 Xrotation Zrotation Yrotation
		JOINT rShin
		{
			OFFSET 2.041588 -20.007561 0.000000 
			CHANNELS 3 Xrotation Zrotation Yrotation
			JOINT rFoot
			{
				OFFSET 0.000000 -19.190928 -1.224953 
				CHANNELS 3 Xrotation Yrotation Zrotation
				End Site
				{
					OFFSET 0.000000 -2.449906 4.627600 
				}
			}
		}
	}
}
MOTION
Frames: 6
Frame Time: 0.033333
-0.499607 50.539761 -0.186871 1.941754 -5.978230 -7.904756 0.000000 0.000000 0.000000 2.839117 -0.224593 0.683589 11.719600 -1.005820 0.507734 19.870989 2.665989 -0.254086 -0.774233 -6.652929 3.106590 -51.130795 6.393464 2.443336 -41.153168 0.466876 30.784042 -31.747683 6.192999 -4.329034 4.585207 9.222819 2.867167 61.475029 -19.458111 -6.811228 47.408669 3.909392 25.058229 9.916636 0.368658 -3.127772 1.230170 12.187082 7.506937 0.994437 -1.858531 15.205970 -1.337172 0.062460 -4.926846 -6.228273 -9.096996 -8.570114 14.238434 6.659893 6.613118 5.806014 0.299403 5.629432 
-0.750949 50.564152 -0.362531 2.003436 -6.167973 -8.762945 0.000000 0.000000 0.000000 3.091579 -0.410136 0.576157 11.693286 -1.054671 0.322211 19.841259 2.763645 -0.254082 -0.745248 -7.369853 3.337849 -55.551373 6.210854 0.760174 -42.904808 1.380176 30.523436 -27.109716 6.914286 -4.404614 4.553622 9.747788 3.078279 63.684246 -18.735100 -5.757284 46.101067 4.575675 23.920858 9.199252 -1.511230 -3.329632 1.365376 12.649397 7.816628 0.946181 -1.767888 15.755228 -1.133856 0.048461 -5.295938 -7.031230 -9.569937 -9.446606 15.657201 7.370338 6.278345 5.191991 0.174301 3.178549 
-1.030719 50.562366 -0.515569 2.337421 -6.217913 -9.765722 0.000000 0.000000 0.000000 2.924571 -0.566383 0.517553 11.646642 -1.201096 0.644594 20.102396 3.681637 -0.077964 -0.964054 -7.710804 3.163413 -59.802528 7.087317 -0.389968 -46.181862 2.127339 30.023241 -20.758390 7.113958 -4.235788 4.721208 9.849992 2.920840 65.171326 -18.379578 -4.484817 44.816647 5.326682 22.199333 8.507712 -1.369999 -3.333641 1.307042 13.128825 8.178765 0.906678 -1.802263 16.411968 -0.979899 0.048800 -5.638859 -8.170779 -10.004304 -9.738409 16.905064 6.969130 1.494020 4.803032 0.079299 1.732954 
-1.332206 50.540222 -0.642703 2.466147 -6.048397 -10.587434 0.000000 0.000000 0.000000 2.835820 -0.615205 0.556609 11.528686 -1.288983 0.634825 20.361542 3.730456 -0.146174 -0.847762 -7.859403 3.095834 -62.997288 6.681880 0.407109 -48.093941 2.095871 29.190008 -13.747089 7.387807 -4.039178 4.969213 10.145561 2.814353 65.672035 -18.575668 -2.794645 43.807114 6.006615 22.022427 6.709517 -1.533020 -3.374507 1.355426 13.419769 8.481627 0.858674 -1.875468 16.815428 -0.797486 0.072583 -5.971806 -8.260124 -10.739173 -10.214601 16.630375 6.327895 -4.862946 5.197485 0.052366 1.536796 
-1.725686 50.521198 -0.739165 2.560124 -5.637394 -11.492688 0.000000 0.000000 0.000000 2.695357 -0.712824 0.781190 11.350595 -1.474516 0.644569 20.228758 3.876872 -0.371565 -0.655654 -8.178854 2.949627 -64.579254 5.772229 3.104802 -49.947304 1.512076 28.940222 -8.596338 8.122843 -3.917919 5.234309 10.494764 2.658386 65.289833 -18.682720 -0.885333 42.568687 6.689135 22.662565 5.414277 -1.271442 -3.376104 1.560553 13.559003 8.711432 0.740827 -1.949007 17.144775 -0.671489 0.049265 -6.449245 -8.007600 -11.620503 -10.829390 15.255600 5.687942 -11.457039 6.201545 0.090685 1.666332 
-2.208279 50.489712 -0.811968 2.613991 -5.181355 -12.317026 0.000000 0.000000 0.000000 2.487437 -0.722547 0.996138 11.252501 -1.513576 0.644564 19.309320 3.613098 -0.576873 -0.890141 -7.980860 2.740946 -65.099861 4.560698 7.484187 -51.468372 0.611412 29.679873 -7.867557 8.610681 -3.929138 5.765567 10.867121 2.440595 64.443146 -18.805712 0.874251 40.911007 7.274080 24.134848 3.935261 -1.051055 -3.389854 1.738080 13.730700 8.893304 0.626369 -1.926121 17.590384 -0.457060 0.030383 -7.079334 -7.068311 -12.337421 -11.222090 12.870124 5.116680 -16.066940 7.644486 0.115486 1.960396 
